<?xml version="1.0" encoding="UTF-8" standalone="no"?>
<svg width="136px" height="44px" viewBox="0 0 136 44" version="1.1" xmlns="http://www.w3.org/2000/svg" xmlns:xlink="http://www.w3.org/1999/xlink">
    <!-- Generator: Sketch 3.6.1 (26313) - http://www.bohemiancoding.com/sketch -->
    <title>says-svg</title>
    <desc>Created with Sketch.</desc>
    <defs></defs>
    <g id="Page-1" stroke="none" stroke-width="1" fill="none" fill-rule="evenodd">
        <g id="says-svg" transform="translate(2.000000, 1.000000)" stroke-width="3" stroke="#FFFFFF" fill="#FFFFFF">
            <g id="Page-1">
                <path d="M30.0666667,39.5185185 L43.2666667,39.5185185 L45.4666667,34.3333333 L55.7333333,34.3333333 L55.7333333,39.5185185 L68.2,39.5185185 L63.0666667,1.74074074 L49.1333333,1.74074074 L30.0666667,39.5185185 L30.0666667,39.5185185 Z M48.4,27.6666667 L56.4666667,27.6666667 L55,12.8518519 L48.4,27.6666667 L48.4,27.6666667 Z M68.2,1.74074074 L79.9333333,1.74074074 L82.8666667,9.14814815 L75.5333333,20.2592593 L68.2,1.74074074 L68.2,1.74074074 Z M93.1333333,1.74074074 L77.7333333,23.2222222 L74.8,39.5185185 L86.5333333,39.5185185 L90.2,23.962963 L106.333333,1.74074074 L93.1333333,1.74074074 L93.1333333,1.74074074 Z M29.3333333,13.5925926 L33.7333333,5.44444444 C33.7333333,5.44444444 28.6599824,1.29005962 22,1 C15.4870712,0.747544822 7.74353562,3.36969997 5.86666667,11.3703704 C4.36130167,19.8259822 10.5027265,23.0810707 14.6666667,24.7037037 C18.5132806,26.5169977 20.2043981,27.7828656 19.0666667,29.8888889 C18.0682492,31.7613075 14.5080036,31.9421457 11,29.8888889 C6.85347401,28.1445421 5.86666667,26.1851852 5.86666667,26.1851852 L0,34.3333333 C0,34.3333333 7.29850484,40.7128018 14.6666667,41 C22.0735268,41.2553163 30.0840809,38.0906468 31.5333333,29.1481481 C33.2883026,20.9110115 26.6128408,17.836761 22,15.8148148 C18.5132806,14.5816722 17.3562005,11.9595173 19.8,9.88888889 C23.6756376,8.16191373 29.3333333,13.5925926 29.3333333,13.5925926 L29.3333333,13.5925926 Z M127.6,13.5925926 L132,5.44444444 C132,5.44444444 126.926649,1.29005962 120.266667,1 C113.753738,0.747544822 106.010202,3.36969997 104.133333,11.3703704 C102.627968,19.8259822 108.769393,23.0810707 112.933333,24.7037037 C116.779947,26.5169977 118.471065,27.7828656 117.333333,29.8888889 C116.334916,31.7613075 112.77467,31.9421457 109.266667,29.8888889 C105.120141,28.1445421 104.133333,26.1851852 104.133333,26.1851852 L98.2666667,34.3333333 C98.2666667,34.3333333 105.565172,40.7128018 112.933333,41 C120.340193,41.2553163 128.350748,38.0906468 129.8,29.1481481 C131.554969,20.9110115 124.879507,17.836761 120.266667,15.8148148 C116.779947,14.5816722 115.622867,11.9595173 118.066667,9.88888889 C121.942304,8.16191373 127.6,13.5925926 127.6,13.5925926 L127.6,13.5925926 Z" id="Path-7"></path>
            </g>
        </g>
    </g>
</svg>